  0
SECTION
  2
ENTITIES
999
DXF created from EnergyPlus
999
Program Version,EnergyPlus-Windows-64 8.1.0.009, YMD=2014.06.22 23:49
999
Polygon Action,ThickPolyline
999
Color Scheme,Default
999
Text - True North
  0
TEXT
  8
1
  6
Continuous
 62
  3
 10
      -11.00000
 20
        3.00000
 30
        0.10000
 40
 .25
  1
True North
 41
 0.0
  7
MONOTXT
210
0.0
220
0.0
230
1.0
999
Text - Building Title
  0
TEXT
  8
1
  6
Continuous
 62
  3
 10
      -14.00000
 20
       -1.00000
 30
        0.10000
 40
 .4
  1
Building - campus building
 41
 0.0
  7
MONOTXT
210
0.0
220
0.0
230
1.0
999
North Arrow Stem
  0
3DFACE
  8
1
 62
  3
 10
      -10.00000
 20
        3.00000
 30
        0.10000
 11
      -10.00000
 21
        3.00000
 31
        0.00000
 12
      -10.00000
 22
        0.00000
 32
        0.00000
 13
      -10.00000
 23
        0.00000
 33
        0.10000
999
North Arrow Head 1
  0
3DFACE
  8
1
 62
  3
 10
      -10.00000
 20
        3.00000
 30
        0.10000
 11
      -10.00000
 21
        3.00000
 31
        0.00000
 12
      -10.50000
 22
        2.13397
 32
        0.00000
 13
      -10.50000
 23
        2.13397
 33
        0.10000
999
North Arrow Head 2
  0
3DFACE
  8
1
 62
  3
 10
      -10.00000
 20
        3.00000
 30
        0.10000
 11
      -10.00000
 21
        3.00000
 31
        0.00000
 12
       -9.50000
 22
        2.13397
 32
        0.00000
 13
       -9.50000
 23
        2.13397
 33
        0.10000
999
North Arrow Side 1
  0
3DFACE
  8
1
 62
  3
 10
      -10.50000
 20
        4.50000
 30
        0.10000
 11
      -10.50000
 21
        4.50000
 31
        0.00000
 12
      -10.50000
 22
        3.50000
 32
        0.00000
 13
      -10.50000
 23
        3.50000
 33
        0.10000
999
North Arrow Side 2
  0
3DFACE
  8
1
 62
  3
 10
      -10.50000
 20
        4.50000
 30
        0.10000
 11
      -10.50000
 21
        4.50000
 31
        0.00000
 12
       -9.50000
 22
        3.50000
 32
        0.00000
 13
       -9.50000
 23
        3.50000
 33
        0.10000
999
North Arrow Side 3
  0
3DFACE
  8
1
 62
  3
 10
       -9.50000
 20
        4.50000
 30
        0.10000
 11
       -9.50000
 21
        4.50000
 31
        0.00000
 12
       -9.50000
 22
        3.50000
 32
        0.00000
 13
       -9.50000
 23
        3.50000
 33
        0.10000
999
Zone Names
999
Zone=1:ZN_1_FLR_1_SEC_1
999
Zone=2:ZN_1_FLR_2_SEC_1
999
Zone=3:ZN_1_FLR_3_SEC_1
999
Zone=4:ZN_1_FLR_1_SEC_2
999
Zone=5:ZN_1_FLR_2_SEC_2
999
Zone=6:ZN_1_FLR_3_SEC_2
999
Zone=7:ZN_1_FLR_1_SEC_3
999
Zone=8:ZN_1_FLR_2_SEC_3
999
Zone=9:ZN_1_FLR_3_SEC_3
999
Zone=10:ZN_1_FLR_1_SEC_4
999
Zone=11:ZN_1_FLR_2_SEC_4
999
Zone=12:ZN_1_FLR_3_SEC_4
999
Zone=13:ZN_1_FLR_1_SEC_5
999
Zone=14:ZN_1_FLR_2_SEC_5
999
Zone=15:ZN_1_FLR_3_SEC_5
999
ZN_1_FLR_1_SEC_1:ZN_1_FLR_1_SEC_1_WALL_1
  0
3DFACE
  8
ZN_1_FLR_1_SEC_1
 62
 43
 10
        0.00000
 20
        0.00000
 30
        3.80000
 11
        0.00000
 21
        0.00000
 31
        0.00000
 12
       71.89230
 22
        0.00000
 32
        0.00000
 13
       71.89230
 23
        0.00000
 33
        3.80000
999
ZN_1_FLR_1_SEC_1:ZN_1_FLR_1_SEC_1_WALL_2
  0
3DFACE
  8
ZN_1_FLR_1_SEC_1
 62
 43
 10
       71.89230
 20
        0.00000
 30
        3.80000
 11
       71.89230
 21
        0.00000
 31
        0.00000
 12
       67.32230
 22
        4.57000
 32
        0.00000
 13
       67.32230
 23
        4.57000
 33
        3.80000
999
ZN_1_FLR_1_SEC_1:ZN_1_FLR_1_SEC_1_WALL_3
  0
3DFACE
  8
ZN_1_FLR_1_SEC_1
 62
 43
 10
       67.32230
 20
        4.57000
 30
        3.80000
 11
       67.32230
 21
        4.57000
 31
        0.00000
 12
        4.57000
 22
        4.57000
 32
        0.00000
 13
        4.57000
 23
        4.57000
 33
        3.80000
999
ZN_1_FLR_1_SEC_1:ZN_1_FLR_1_SEC_1_WALL_4
  0
3DFACE
  8
ZN_1_FLR_1_SEC_1
 62
 43
 10
        4.57000
 20
        4.57000
 30
        3.80000
 11
        4.57000
 21
        4.57000
 31
        0.00000
 12
        0.00000
 22
        0.00000
 32
        0.00000
 13
        0.00000
 23
        0.00000
 33
        3.80000
999
ZN_1_FLR_1_SEC_1:ZN_1_FLR_1_SEC_1_FLOOR
  0
3DFACE
  8
ZN_1_FLR_1_SEC_1
 62
  8
 10
        4.57000
 20
        4.57000
 30
        0.00000
 11
       67.32230
 21
        4.57000
 31
        0.00000
 12
       71.89230
 22
        0.00000
 32
        0.00000
 13
        0.00000
 23
        0.00000
 33
        0.00000
999
ZN_1_FLR_1_SEC_1:ZN_1_FLR_1_SEC_1_CEILING
  0
3DFACE
  8
ZN_1_FLR_1_SEC_1
 62
 15
 10
        0.00000
 20
        0.00000
 30
        3.80000
 11
       71.89230
 21
        0.00000
 31
        3.80000
 12
       67.32230
 22
        4.57000
 32
        3.80000
 13
        4.57000
 23
        4.57000
 33
        3.80000
999
ZN_1_FLR_2_SEC_1:ZN_1_FLR_2_SEC_1_WALL_1
  0
3DFACE
  8
ZN_1_FLR_2_SEC_1
 62
 43
 10
        0.00000
 20
        0.00000
 30
       11.40000
 11
        0.00000
 21
        0.00000
 31
        7.60000
 12
       71.89230
 22
        0.00000
 32
        7.60000
 13
       71.89230
 23
        0.00000
 33
       11.40000
999
ZN_1_FLR_2_SEC_1:ZN_1_FLR_2_SEC_1_WALL_2
  0
3DFACE
  8
ZN_1_FLR_2_SEC_1
 62
 43
 10
       71.89230
 20
        0.00000
 30
       11.40000
 11
       71.89230
 21
        0.00000
 31
        7.60000
 12
       67.32230
 22
        4.57000
 32
        7.60000
 13
       67.32230
 23
        4.57000
 33
       11.40000
999
ZN_1_FLR_2_SEC_1:ZN_1_FLR_2_SEC_1_WALL_3
  0
3DFACE
  8
ZN_1_FLR_2_SEC_1
 62
 43
 10
       67.32230
 20
        4.57000
 30
       11.40000
 11
       67.32230
 21
        4.57000
 31
        7.60000
 12
        4.57000
 22
        4.57000
 32
        7.60000
 13
        4.57000
 23
        4.57000
 33
       11.40000
999
ZN_1_FLR_2_SEC_1:ZN_1_FLR_2_SEC_1_WALL_4
  0
3DFACE
  8
ZN_1_FLR_2_SEC_1
 62
 43
 10
        4.57000
 20
        4.57000
 30
       11.40000
 11
        4.57000
 21
        4.57000
 31
        7.60000
 12
        0.00000
 22
        0.00000
 32
        7.60000
 13
        0.00000
 23
        0.00000
 33
       11.40000
999
ZN_1_FLR_2_SEC_1:ZN_1_FLR_2_SEC_1_FLOOR
  0
3DFACE
  8
ZN_1_FLR_2_SEC_1
 62
  8
 10
        4.57000
 20
        4.57000
 30
        7.60000
 11
       67.32230
 21
        4.57000
 31
        7.60000
 12
       71.89230
 22
        0.00000
 32
        7.60000
 13
        0.00000
 23
        0.00000
 33
        7.60000
999
ZN_1_FLR_2_SEC_1:ZN_1_FLR_2_SEC_1_CEILING
  0
3DFACE
  8
ZN_1_FLR_2_SEC_1
 62
 15
 10
        0.00000
 20
        0.00000
 30
       11.40000
 11
       71.89230
 21
        0.00000
 31
       11.40000
 12
       67.32230
 22
        4.57000
 32
       11.40000
 13
        4.57000
 23
        4.57000
 33
       11.40000
999
ZN_1_FLR_3_SEC_1:ZN_1_FLR_3_SEC_1_WALL_1
  0
3DFACE
  8
ZN_1_FLR_3_SEC_1
 62
 43
 10
        0.00000
 20
        0.00000
 30
       19.00000
 11
        0.00000
 21
        0.00000
 31
       15.20000
 12
       71.89230
 22
        0.00000
 32
       15.20000
 13
       71.89230
 23
        0.00000
 33
       19.00000
999
ZN_1_FLR_3_SEC_1:ZN_1_FLR_3_SEC_1_WALL_2
  0
3DFACE
  8
ZN_1_FLR_3_SEC_1
 62
 43
 10
       71.89230
 20
        0.00000
 30
       19.00000
 11
       71.89230
 21
        0.00000
 31
       15.20000
 12
       67.32230
 22
        4.57000
 32
       15.20000
 13
       67.32230
 23
        4.57000
 33
       19.00000
999
ZN_1_FLR_3_SEC_1:ZN_1_FLR_3_SEC_1_WALL_3
  0
3DFACE
  8
ZN_1_FLR_3_SEC_1
 62
 43
 10
       67.32230
 20
        4.57000
 30
       19.00000
 11
       67.32230
 21
        4.57000
 31
       15.20000
 12
        4.57000
 22
        4.57000
 32
       15.20000
 13
        4.57000
 23
        4.57000
 33
       19.00000
999
ZN_1_FLR_3_SEC_1:ZN_1_FLR_3_SEC_1_WALL_4
  0
3DFACE
  8
ZN_1_FLR_3_SEC_1
 62
 43
 10
        4.57000
 20
        4.57000
 30
       19.00000
 11
        4.57000
 21
        4.57000
 31
       15.20000
 12
        0.00000
 22
        0.00000
 32
       15.20000
 13
        0.00000
 23
        0.00000
 33
       19.00000
999
ZN_1_FLR_3_SEC_1:ZN_1_FLR_3_SEC_1_FLOOR
  0
3DFACE
  8
ZN_1_FLR_3_SEC_1
 62
  8
 10
        4.57000
 20
        4.57000
 30
       15.20000
 11
       67.32230
 21
        4.57000
 31
       15.20000
 12
       71.89230
 22
        0.00000
 32
       15.20000
 13
        0.00000
 23
        0.00000
 33
       15.20000
999
ZN_1_FLR_3_SEC_1:ZN_1_FLR_3_SEC_1_CEILING
  0
3DFACE
  8
ZN_1_FLR_3_SEC_1
 62
 15
 10
        0.00000
 20
        0.00000
 30
       19.00000
 11
       71.89230
 21
        0.00000
 31
       19.00000
 12
       67.32230
 22
        4.57000
 32
       19.00000
 13
        4.57000
 23
        4.57000
 33
       19.00000
999
ZN_1_FLR_1_SEC_2:ZN_1_FLR_1_SEC_2_WALL_1
  0
3DFACE
  8
ZN_1_FLR_1_SEC_2
 62
 43
 10
       71.89230
 20
        0.00000
 30
        3.80000
 11
       71.89230
 21
        0.00000
 31
        0.00000
 12
       71.89230
 22
       35.94610
 32
        0.00000
 13
       71.89230
 23
       35.94610
 33
        3.80000
999
ZN_1_FLR_1_SEC_2:ZN_1_FLR_1_SEC_2_WALL_2
  0
3DFACE
  8
ZN_1_FLR_1_SEC_2
 62
 43
 10
       71.89230
 20
       35.94610
 30
        3.80000
 11
       71.89230
 21
       35.94610
 31
        0.00000
 12
       67.32230
 22
       31.37610
 32
        0.00000
 13
       67.32230
 23
       31.37610
 33
        3.80000
999
ZN_1_FLR_1_SEC_2:ZN_1_FLR_1_SEC_2_WALL_3
  0
3DFACE
  8
ZN_1_FLR_1_SEC_2
 62
 43
 10
       67.32230
 20
       31.37610
 30
        3.80000
 11
       67.32230
 21
       31.37610
 31
        0.00000
 12
       67.32230
 22
        4.57000
 32
        0.00000
 13
       67.32230
 23
        4.57000
 33
        3.80000
999
ZN_1_FLR_1_SEC_2:ZN_1_FLR_1_SEC_2_WALL_4
  0
3DFACE
  8
ZN_1_FLR_1_SEC_2
 62
 43
 10
       67.32230
 20
        4.57000
 30
        3.80000
 11
       67.32230
 21
        4.57000
 31
        0.00000
 12
       71.89230
 22
        0.00000
 32
        0.00000
 13
       71.89230
 23
        0.00000
 33
        3.80000
999
ZN_1_FLR_1_SEC_2:ZN_1_FLR_1_SEC_2_FLOOR
  0
3DFACE
  8
ZN_1_FLR_1_SEC_2
 62
  8
 10
       67.32230
 20
        4.57000
 30
        0.00000
 11
       67.32230
 21
       31.37610
 31
        0.00000
 12
       71.89230
 22
       35.94610
 32
        0.00000
 13
       71.89230
 23
        0.00000
 33
        0.00000
999
ZN_1_FLR_1_SEC_2:ZN_1_FLR_1_SEC_2_CEILING
  0
3DFACE
  8
ZN_1_FLR_1_SEC_2
 62
 15
 10
       71.89230
 20
        0.00000
 30
        3.80000
 11
       71.89230
 21
       35.94610
 31
        3.80000
 12
       67.32230
 22
       31.37610
 32
        3.80000
 13
       67.32230
 23
        4.57000
 33
        3.80000
999
ZN_1_FLR_2_SEC_2:ZN_1_FLR_2_SEC_2_WALL_1
  0
3DFACE
  8
ZN_1_FLR_2_SEC_2
 62
 43
 10
       71.89230
 20
        0.00000
 30
       11.40000
 11
       71.89230
 21
        0.00000
 31
        7.60000
 12
       71.89230
 22
       35.94610
 32
        7.60000
 13
       71.89230
 23
       35.94610
 33
       11.40000
999
ZN_1_FLR_2_SEC_2:ZN_1_FLR_2_SEC_2_WALL_2
  0
3DFACE
  8
ZN_1_FLR_2_SEC_2
 62
 43
 10
       71.89230
 20
       35.94610
 30
       11.40000
 11
       71.89230
 21
       35.94610
 31
        7.60000
 12
       67.32230
 22
       31.37610
 32
        7.60000
 13
       67.32230
 23
       31.37610
 33
       11.40000
999
ZN_1_FLR_2_SEC_2:ZN_1_FLR_2_SEC_2_WALL_3
  0
3DFACE
  8
ZN_1_FLR_2_SEC_2
 62
 43
 10
       67.32230
 20
       31.37610
 30
       11.40000
 11
       67.32230
 21
       31.37610
 31
        7.60000
 12
       67.32230
 22
        4.57000
 32
        7.60000
 13
       67.32230
 23
        4.57000
 33
       11.40000
999
ZN_1_FLR_2_SEC_2:ZN_1_FLR_2_SEC_2_WALL_4
  0
3DFACE
  8
ZN_1_FLR_2_SEC_2
 62
 43
 10
       67.32230
 20
        4.57000
 30
       11.40000
 11
       67.32230
 21
        4.57000
 31
        7.60000
 12
       71.89230
 22
        0.00000
 32
        7.60000
 13
       71.89230
 23
        0.00000
 33
       11.40000
999
ZN_1_FLR_2_SEC_2:ZN_1_FLR_2_SEC_2_FLOOR
  0
3DFACE
  8
ZN_1_FLR_2_SEC_2
 62
  8
 10
       67.32230
 20
        4.57000
 30
        7.60000
 11
       67.32230
 21
       31.37610
 31
        7.60000
 12
       71.89230
 22
       35.94610
 32
        7.60000
 13
       71.89230
 23
        0.00000
 33
        7.60000
999
ZN_1_FLR_2_SEC_2:ZN_1_FLR_2_SEC_2_CEILING
  0
3DFACE
  8
ZN_1_FLR_2_SEC_2
 62
 15
 10
       71.89230
 20
        0.00000
 30
       11.40000
 11
       71.89230
 21
       35.94610
 31
       11.40000
 12
       67.32230
 22
       31.37610
 32
       11.40000
 13
       67.32230
 23
        4.57000
 33
       11.40000
999
ZN_1_FLR_3_SEC_2:ZN_1_FLR_3_SEC_2_WALL_1
  0
3DFACE
  8
ZN_1_FLR_3_SEC_2
 62
 43
 10
       71.89230
 20
        0.00000
 30
       19.00000
 11
       71.89230
 21
        0.00000
 31
       15.20000
 12
       71.89230
 22
       35.94610
 32
       15.20000
 13
       71.89230
 23
       35.94610
 33
       19.00000
999
ZN_1_FLR_3_SEC_2:ZN_1_FLR_3_SEC_2_WALL_2
  0
3DFACE
  8
ZN_1_FLR_3_SEC_2
 62
 43
 10
       71.89230
 20
       35.94610
 30
       19.00000
 11
       71.89230
 21
       35.94610
 31
       15.20000
 12
       67.32230
 22
       31.37610
 32
       15.20000
 13
       67.32230
 23
       31.37610
 33
       19.00000
999
ZN_1_FLR_3_SEC_2:ZN_1_FLR_3_SEC_2_WALL_3
  0
3DFACE
  8
ZN_1_FLR_3_SEC_2
 62
 43
 10
       67.32230
 20
       31.37610
 30
       19.00000
 11
       67.32230
 21
       31.37610
 31
       15.20000
 12
       67.32230
 22
        4.57000
 32
       15.20000
 13
       67.32230
 23
        4.57000
 33
       19.00000
999
ZN_1_FLR_3_SEC_2:ZN_1_FLR_3_SEC_2_WALL_4
  0
3DFACE
  8
ZN_1_FLR_3_SEC_2
 62
 43
 10
       67.32230
 20
        4.57000
 30
       19.00000
 11
       67.32230
 21
        4.57000
 31
       15.20000
 12
       71.89230
 22
        0.00000
 32
       15.20000
 13
       71.89230
 23
        0.00000
 33
       19.00000
999
ZN_1_FLR_3_SEC_2:ZN_1_FLR_3_SEC_2_FLOOR
  0
3DFACE
  8
ZN_1_FLR_3_SEC_2
 62
  8
 10
       67.32230
 20
        4.57000
 30
       15.20000
 11
       67.32230
 21
       31.37610
 31
       15.20000
 12
       71.89230
 22
       35.94610
 32
       15.20000
 13
       71.89230
 23
        0.00000
 33
       15.20000
999
ZN_1_FLR_3_SEC_2:ZN_1_FLR_3_SEC_2_CEILING
  0
3DFACE
  8
ZN_1_FLR_3_SEC_2
 62
 15
 10
       71.89230
 20
        0.00000
 30
       19.00000
 11
       71.89230
 21
       35.94610
 31
       19.00000
 12
       67.32230
 22
       31.37610
 32
       19.00000
 13
       67.32230
 23
        4.57000
 33
       19.00000
999
ZN_1_FLR_1_SEC_3:ZN_1_FLR_1_SEC_3_WALL_1
  0
3DFACE
  8
ZN_1_FLR_1_SEC_3
 62
 43
 10
        4.57000
 20
       31.37610
 30
        3.80000
 11
        4.57000
 21
       31.37610
 31
        0.00000
 12
       67.32230
 22
       31.37610
 32
        0.00000
 13
       67.32230
 23
       31.37610
 33
        3.80000
999
ZN_1_FLR_1_SEC_3:ZN_1_FLR_1_SEC_3_WALL_2
  0
3DFACE
  8
ZN_1_FLR_1_SEC_3
 62
 43
 10
       67.32230
 20
       31.37610
 30
        3.80000
 11
       67.32230
 21
       31.37610
 31
        0.00000
 12
       71.89230
 22
       35.94610
 32
        0.00000
 13
       71.89230
 23
       35.94610
 33
        3.80000
999
ZN_1_FLR_1_SEC_3:ZN_1_FLR_1_SEC_3_WALL_3
  0
3DFACE
  8
ZN_1_FLR_1_SEC_3
 62
 43
 10
       71.89230
 20
       35.94610
 30
        3.80000
 11
       71.89230
 21
       35.94610
 31
        0.00000
 12
        0.00000
 22
       35.94610
 32
        0.00000
 13
        0.00000
 23
       35.94610
 33
        3.80000
999
ZN_1_FLR_1_SEC_3:ZN_1_FLR_1_SEC_3_WALL_4
  0
3DFACE
  8
ZN_1_FLR_1_SEC_3
 62
 43
 10
        0.00000
 20
       35.94610
 30
        3.80000
 11
        0.00000
 21
       35.94610
 31
        0.00000
 12
        4.57000
 22
       31.37610
 32
        0.00000
 13
        4.57000
 23
       31.37610
 33
        3.80000
999
ZN_1_FLR_1_SEC_3:ZN_1_FLR_1_SEC_3_FLOOR
  0
3DFACE
  8
ZN_1_FLR_1_SEC_3
 62
  8
 10
        0.00000
 20
       35.94610
 30
        0.00000
 11
       71.89230
 21
       35.94610
 31
        0.00000
 12
       67.32230
 22
       31.37610
 32
        0.00000
 13
        4.57000
 23
       31.37610
 33
        0.00000
999
ZN_1_FLR_1_SEC_3:ZN_1_FLR_1_SEC_3_CEILING
  0
3DFACE
  8
ZN_1_FLR_1_SEC_3
 62
 15
 10
        4.57000
 20
       31.37610
 30
        3.80000
 11
       67.32230
 21
       31.37610
 31
        3.80000
 12
       71.89230
 22
       35.94610
 32
        3.80000
 13
        0.00000
 23
       35.94610
 33
        3.80000
999
ZN_1_FLR_2_SEC_3:ZN_1_FLR_2_SEC_3_WALL_1
  0
3DFACE
  8
ZN_1_FLR_2_SEC_3
 62
 43
 10
        4.57000
 20
       31.37610
 30
       11.40000
 11
        4.57000
 21
       31.37610
 31
        7.60000
 12
       67.32230
 22
       31.37610
 32
        7.60000
 13
       67.32230
 23
       31.37610
 33
       11.40000
999
ZN_1_FLR_2_SEC_3:ZN_1_FLR_2_SEC_3_WALL_2
  0
3DFACE
  8
ZN_1_FLR_2_SEC_3
 62
 43
 10
       67.32230
 20
       31.37610
 30
       11.40000
 11
       67.32230
 21
       31.37610
 31
        7.60000
 12
       71.89230
 22
       35.94610
 32
        7.60000
 13
       71.89230
 23
       35.94610
 33
       11.40000
999
ZN_1_FLR_2_SEC_3:ZN_1_FLR_2_SEC_3_WALL_3
  0
3DFACE
  8
ZN_1_FLR_2_SEC_3
 62
 43
 10
       71.89230
 20
       35.94610
 30
       11.40000
 11
       71.89230
 21
       35.94610
 31
        7.60000
 12
        0.00000
 22
       35.94610
 32
        7.60000
 13
        0.00000
 23
       35.94610
 33
       11.40000
999
ZN_1_FLR_2_SEC_3:ZN_1_FLR_2_SEC_3_WALL_4
  0
3DFACE
  8
ZN_1_FLR_2_SEC_3
 62
 43
 10
        0.00000
 20
       35.94610
 30
       11.40000
 11
        0.00000
 21
       35.94610
 31
        7.60000
 12
        4.57000
 22
       31.37610
 32
        7.60000
 13
        4.57000
 23
       31.37610
 33
       11.40000
999
ZN_1_FLR_2_SEC_3:ZN_1_FLR_2_SEC_3_FLOOR
  0
3DFACE
  8
ZN_1_FLR_2_SEC_3
 62
  8
 10
        0.00000
 20
       35.94610
 30
        7.60000
 11
       71.89230
 21
       35.94610
 31
        7.60000
 12
       67.32230
 22
       31.37610
 32
        7.60000
 13
        4.57000
 23
       31.37610
 33
        7.60000
999
ZN_1_FLR_2_SEC_3:ZN_1_FLR_2_SEC_3_CEILING
  0
3DFACE
  8
ZN_1_FLR_2_SEC_3
 62
 15
 10
        4.57000
 20
       31.37610
 30
       11.40000
 11
       67.32230
 21
       31.37610
 31
       11.40000
 12
       71.89230
 22
       35.94610
 32
       11.40000
 13
        0.00000
 23
       35.94610
 33
       11.40000
999
ZN_1_FLR_3_SEC_3:ZN_1_FLR_3_SEC_3_WALL_1
  0
3DFACE
  8
ZN_1_FLR_3_SEC_3
 62
 43
 10
        4.57000
 20
       31.37610
 30
       19.00000
 11
        4.57000
 21
       31.37610
 31
       15.20000
 12
       67.32230
 22
       31.37610
 32
       15.20000
 13
       67.32230
 23
       31.37610
 33
       19.00000
999
ZN_1_FLR_3_SEC_3:ZN_1_FLR_3_SEC_3_WALL_2
  0
3DFACE
  8
ZN_1_FLR_3_SEC_3
 62
 43
 10
       67.32230
 20
       31.37610
 30
       19.00000
 11
       67.32230
 21
       31.37610
 31
       15.20000
 12
       71.89230
 22
       35.94610
 32
       15.20000
 13
       71.89230
 23
       35.94610
 33
       19.00000
999
ZN_1_FLR_3_SEC_3:ZN_1_FLR_3_SEC_3_WALL_3
  0
3DFACE
  8
ZN_1_FLR_3_SEC_3
 62
 43
 10
       71.89230
 20
       35.94610
 30
       19.00000
 11
       71.89230
 21
       35.94610
 31
       15.20000
 12
        0.00000
 22
       35.94610
 32
       15.20000
 13
        0.00000
 23
       35.94610
 33
       19.00000
999
ZN_1_FLR_3_SEC_3:ZN_1_FLR_3_SEC_3_WALL_4
  0
3DFACE
  8
ZN_1_FLR_3_SEC_3
 62
 43
 10
        0.00000
 20
       35.94610
 30
       19.00000
 11
        0.00000
 21
       35.94610
 31
       15.20000
 12
        4.57000
 22
       31.37610
 32
       15.20000
 13
        4.57000
 23
       31.37610
 33
       19.00000
999
ZN_1_FLR_3_SEC_3:ZN_1_FLR_3_SEC_3_FLOOR
  0
3DFACE
  8
ZN_1_FLR_3_SEC_3
 62
  8
 10
        0.00000
 20
       35.94610
 30
       15.20000
 11
       71.89230
 21
       35.94610
 31
       15.20000
 12
       67.32230
 22
       31.37610
 32
       15.20000
 13
        4.57000
 23
       31.37610
 33
       15.20000
999
ZN_1_FLR_3_SEC_3:ZN_1_FLR_3_SEC_3_CEILING
  0
3DFACE
  8
ZN_1_FLR_3_SEC_3
 62
 15
 10
        4.57000
 20
       31.37610
 30
       19.00000
 11
       67.32230
 21
       31.37610
 31
       19.00000
 12
       71.89230
 22
       35.94610
 32
       19.00000
 13
        0.00000
 23
       35.94610
 33
       19.00000
999
ZN_1_FLR_1_SEC_4:ZN_1_FLR_1_SEC_4_WALL_1
  0
3DFACE
  8
ZN_1_FLR_1_SEC_4
 62
 43
 10
        0.00000
 20
        0.00000
 30
        3.80000
 11
        0.00000
 21
        0.00000
 31
        0.00000
 12
        4.57000
 22
        4.57000
 32
        0.00000
 13
        4.57000
 23
        4.57000
 33
        3.80000
999
ZN_1_FLR_1_SEC_4:ZN_1_FLR_1_SEC_4_WALL_2
  0
3DFACE
  8
ZN_1_FLR_1_SEC_4
 62
 43
 10
        4.57000
 20
        4.57000
 30
        3.80000
 11
        4.57000
 21
        4.57000
 31
        0.00000
 12
        4.57000
 22
       31.37610
 32
        0.00000
 13
        4.57000
 23
       31.37610
 33
        3.80000
999
ZN_1_FLR_1_SEC_4:ZN_1_FLR_1_SEC_4_WALL_3
  0
3DFACE
  8
ZN_1_FLR_1_SEC_4
 62
 43
 10
        4.57000
 20
       31.37610
 30
        3.80000
 11
        4.57000
 21
       31.37610
 31
        0.00000
 12
        0.00000
 22
       35.94610
 32
        0.00000
 13
        0.00000
 23
       35.94610
 33
        3.80000
999
ZN_1_FLR_1_SEC_4:ZN_1_FLR_1_SEC_4_WALL_4
  0
3DFACE
  8
ZN_1_FLR_1_SEC_4
 62
 43
 10
        0.00000
 20
       35.94610
 30
        3.80000
 11
        0.00000
 21
       35.94610
 31
        0.00000
 12
        0.00000
 22
        0.00000
 32
        0.00000
 13
        0.00000
 23
        0.00000
 33
        3.80000
999
ZN_1_FLR_1_SEC_4:ZN_1_FLR_1_SEC_4_FLOOR
  0
3DFACE
  8
ZN_1_FLR_1_SEC_4
 62
  8
 10
        0.00000
 20
       35.94610
 30
        0.00000
 11
        4.57000
 21
       31.37610
 31
        0.00000
 12
        4.57000
 22
        4.57000
 32
        0.00000
 13
        0.00000
 23
        0.00000
 33
        0.00000
999
ZN_1_FLR_1_SEC_4:ZN_1_FLR_1_SEC_4_CEILING
  0
3DFACE
  8
ZN_1_FLR_1_SEC_4
 62
 15
 10
        0.00000
 20
        0.00000
 30
        3.80000
 11
        4.57000
 21
        4.57000
 31
        3.80000
 12
        4.57000
 22
       31.37610
 32
        3.80000
 13
        0.00000
 23
       35.94610
 33
        3.80000
999
ZN_1_FLR_2_SEC_4:ZN_1_FLR_2_SEC_4_WALL_1
  0
3DFACE
  8
ZN_1_FLR_2_SEC_4
 62
 43
 10
        0.00000
 20
        0.00000
 30
       11.40000
 11
        0.00000
 21
        0.00000
 31
        7.60000
 12
        4.57000
 22
        4.57000
 32
        7.60000
 13
        4.57000
 23
        4.57000
 33
       11.40000
999
ZN_1_FLR_2_SEC_4:ZN_1_FLR_2_SEC_4_WALL_2
  0
3DFACE
  8
ZN_1_FLR_2_SEC_4
 62
 43
 10
        4.57000
 20
        4.57000
 30
       11.40000
 11
        4.57000
 21
        4.57000
 31
        7.60000
 12
        4.57000
 22
       31.37610
 32
        7.60000
 13
        4.57000
 23
       31.37610
 33
       11.40000
999
ZN_1_FLR_2_SEC_4:ZN_1_FLR_2_SEC_4_WALL_3
  0
3DFACE
  8
ZN_1_FLR_2_SEC_4
 62
 43
 10
        4.57000
 20
       31.37610
 30
       11.40000
 11
        4.57000
 21
       31.37610
 31
        7.60000
 12
        0.00000
 22
       35.94610
 32
        7.60000
 13
        0.00000
 23
       35.94610
 33
       11.40000
999
ZN_1_FLR_2_SEC_4:ZN_1_FLR_2_SEC_4_WALL_4
  0
3DFACE
  8
ZN_1_FLR_2_SEC_4
 62
 43
 10
        0.00000
 20
       35.94610
 30
       11.40000
 11
        0.00000
 21
       35.94610
 31
        7.60000
 12
        0.00000
 22
        0.00000
 32
        7.60000
 13
        0.00000
 23
        0.00000
 33
       11.40000
999
ZN_1_FLR_2_SEC_4:ZN_1_FLR_2_SEC_4_FLOOR
  0
3DFACE
  8
ZN_1_FLR_2_SEC_4
 62
  8
 10
        0.00000
 20
       35.94610
 30
        7.60000
 11
        4.57000
 21
       31.37610
 31
        7.60000
 12
        4.57000
 22
        4.57000
 32
        7.60000
 13
        0.00000
 23
        0.00000
 33
        7.60000
999
ZN_1_FLR_2_SEC_4:ZN_1_FLR_2_SEC_4_CEILING
  0
3DFACE
  8
ZN_1_FLR_2_SEC_4
 62
 15
 10
        0.00000
 20
        0.00000
 30
       11.40000
 11
        4.57000
 21
        4.57000
 31
       11.40000
 12
        4.57000
 22
       31.37610
 32
       11.40000
 13
        0.00000
 23
       35.94610
 33
       11.40000
999
ZN_1_FLR_3_SEC_4:ZN_1_FLR_3_SEC_4_WALL_1
  0
3DFACE
  8
ZN_1_FLR_3_SEC_4
 62
 43
 10
        0.00000
 20
        0.00000
 30
       19.00000
 11
        0.00000
 21
        0.00000
 31
       15.20000
 12
        4.57000
 22
        4.57000
 32
       15.20000
 13
        4.57000
 23
        4.57000
 33
       19.00000
999
ZN_1_FLR_3_SEC_4:ZN_1_FLR_3_SEC_4_WALL_2
  0
3DFACE
  8
ZN_1_FLR_3_SEC_4
 62
 43
 10
        4.57000
 20
        4.57000
 30
       19.00000
 11
        4.57000
 21
        4.57000
 31
       15.20000
 12
        4.57000
 22
       31.37610
 32
       15.20000
 13
        4.57000
 23
       31.37610
 33
       19.00000
999
ZN_1_FLR_3_SEC_4:ZN_1_FLR_3_SEC_4_WALL_3
  0
3DFACE
  8
ZN_1_FLR_3_SEC_4
 62
 43
 10
        4.57000
 20
       31.37610
 30
       19.00000
 11
        4.57000
 21
       31.37610
 31
       15.20000
 12
        0.00000
 22
       35.94610
 32
       15.20000
 13
        0.00000
 23
       35.94610
 33
       19.00000
999
ZN_1_FLR_3_SEC_4:ZN_1_FLR_3_SEC_4_WALL_4
  0
3DFACE
  8
ZN_1_FLR_3_SEC_4
 62
 43
 10
        0.00000
 20
       35.94610
 30
       19.00000
 11
        0.00000
 21
       35.94610
 31
       15.20000
 12
        0.00000
 22
        0.00000
 32
       15.20000
 13
        0.00000
 23
        0.00000
 33
       19.00000
999
ZN_1_FLR_3_SEC_4:ZN_1_FLR_3_SEC_4_FLOOR
  0
3DFACE
  8
ZN_1_FLR_3_SEC_4
 62
  8
 10
        0.00000
 20
       35.94610
 30
       15.20000
 11
        4.57000
 21
       31.37610
 31
       15.20000
 12
        4.57000
 22
        4.57000
 32
       15.20000
 13
        0.00000
 23
        0.00000
 33
       15.20000
999
ZN_1_FLR_3_SEC_4:ZN_1_FLR_3_SEC_4_CEILING
  0
3DFACE
  8
ZN_1_FLR_3_SEC_4
 62
 15
 10
        0.00000
 20
        0.00000
 30
       19.00000
 11
        4.57000
 21
        4.57000
 31
       19.00000
 12
        4.57000
 22
       31.37610
 32
       19.00000
 13
        0.00000
 23
       35.94610
 33
       19.00000
999
ZN_1_FLR_1_SEC_5:ZN_1_FLR_1_SEC_5_WALL_1
  0
3DFACE
  8
ZN_1_FLR_1_SEC_5
 62
 43
 10
        4.57000
 20
        4.57000
 30
        3.80000
 11
        4.57000
 21
        4.57000
 31
        0.00000
 12
       67.32230
 22
        4.57000
 32
        0.00000
 13
       67.32230
 23
        4.57000
 33
        3.80000
999
ZN_1_FLR_1_SEC_5:ZN_1_FLR_1_SEC_5_WALL_2
  0
3DFACE
  8
ZN_1_FLR_1_SEC_5
 62
 43
 10
       67.32230
 20
        4.57000
 30
        3.80000
 11
       67.32230
 21
        4.57000
 31
        0.00000
 12
       67.32230
 22
       31.37610
 32
        0.00000
 13
       67.32230
 23
       31.37610
 33
        3.80000
999
ZN_1_FLR_1_SEC_5:ZN_1_FLR_1_SEC_5_WALL_3
  0
3DFACE
  8
ZN_1_FLR_1_SEC_5
 62
 43
 10
       67.32230
 20
       31.37610
 30
        3.80000
 11
       67.32230
 21
       31.37610
 31
        0.00000
 12
        4.57000
 22
       31.37610
 32
        0.00000
 13
        4.57000
 23
       31.37610
 33
        3.80000
999
ZN_1_FLR_1_SEC_5:ZN_1_FLR_1_SEC_5_WALL_4
  0
3DFACE
  8
ZN_1_FLR_1_SEC_5
 62
 43
 10
        4.57000
 20
       31.37610
 30
        3.80000
 11
        4.57000
 21
       31.37610
 31
        0.00000
 12
        4.57000
 22
        4.57000
 32
        0.00000
 13
        4.57000
 23
        4.57000
 33
        3.80000
999
ZN_1_FLR_1_SEC_5:ZN_1_FLR_1_SEC_5_FLOOR
  0
3DFACE
  8
ZN_1_FLR_1_SEC_5
 62
  8
 10
        4.57000
 20
       31.37610
 30
        0.00000
 11
       67.32230
 21
       31.37610
 31
        0.00000
 12
       67.32230
 22
        4.57000
 32
        0.00000
 13
        4.57000
 23
        4.57000
 33
        0.00000
999
ZN_1_FLR_1_SEC_5:ZN_1_FLR_1_SEC_5_CEILING
  0
3DFACE
  8
ZN_1_FLR_1_SEC_5
 62
 15
 10
        4.57000
 20
        4.57000
 30
        3.80000
 11
       67.32230
 21
        4.57000
 31
        3.80000
 12
       67.32230
 22
       31.37610
 32
        3.80000
 13
        4.57000
 23
       31.37610
 33
        3.80000
999
ZN_1_FLR_2_SEC_5:ZN_1_FLR_2_SEC_5_WALL_1
  0
3DFACE
  8
ZN_1_FLR_2_SEC_5
 62
 43
 10
        4.57000
 20
        4.57000
 30
       11.40000
 11
        4.57000
 21
        4.57000
 31
        7.60000
 12
       67.32230
 22
        4.57000
 32
        7.60000
 13
       67.32230
 23
        4.57000
 33
       11.40000
999
ZN_1_FLR_2_SEC_5:ZN_1_FLR_2_SEC_5_WALL_2
  0
3DFACE
  8
ZN_1_FLR_2_SEC_5
 62
 43
 10
       67.32230
 20
        4.57000
 30
       11.40000
 11
       67.32230
 21
        4.57000
 31
        7.60000
 12
       67.32230
 22
       31.37610
 32
        7.60000
 13
       67.32230
 23
       31.37610
 33
       11.40000
999
ZN_1_FLR_2_SEC_5:ZN_1_FLR_2_SEC_5_WALL_3
  0
3DFACE
  8
ZN_1_FLR_2_SEC_5
 62
 43
 10
       67.32230
 20
       31.37610
 30
       11.40000
 11
       67.32230
 21
       31.37610
 31
        7.60000
 12
        4.57000
 22
       31.37610
 32
        7.60000
 13
        4.57000
 23
       31.37610
 33
       11.40000
999
ZN_1_FLR_2_SEC_5:ZN_1_FLR_2_SEC_5_WALL_4
  0
3DFACE
  8
ZN_1_FLR_2_SEC_5
 62
 43
 10
        4.57000
 20
       31.37610
 30
       11.40000
 11
        4.57000
 21
       31.37610
 31
        7.60000
 12
        4.57000
 22
        4.57000
 32
        7.60000
 13
        4.57000
 23
        4.57000
 33
       11.40000
999
ZN_1_FLR_2_SEC_5:ZN_1_FLR_2_SEC_5_FLOOR
  0
3DFACE
  8
ZN_1_FLR_2_SEC_5
 62
  8
 10
        4.57000
 20
       31.37610
 30
        7.60000
 11
       67.32230
 21
       31.37610
 31
        7.60000
 12
       67.32230
 22
        4.57000
 32
        7.60000
 13
        4.57000
 23
        4.57000
 33
        7.60000
999
ZN_1_FLR_2_SEC_5:ZN_1_FLR_2_SEC_5_CEILING
  0
3DFACE
  8
ZN_1_FLR_2_SEC_5
 62
 15
 10
        4.57000
 20
        4.57000
 30
       11.40000
 11
       67.32230
 21
        4.57000
 31
       11.40000
 12
       67.32230
 22
       31.37610
 32
       11.40000
 13
        4.57000
 23
       31.37610
 33
       11.40000
999
ZN_1_FLR_3_SEC_5:ZN_1_FLR_3_SEC_5_WALL_1
  0
3DFACE
  8
ZN_1_FLR_3_SEC_5
 62
 43
 10
        4.57000
 20
        4.57000
 30
       19.00000
 11
        4.57000
 21
        4.57000
 31
       15.20000
 12
       67.32230
 22
        4.57000
 32
       15.20000
 13
       67.32230
 23
        4.57000
 33
       19.00000
999
ZN_1_FLR_3_SEC_5:ZN_1_FLR_3_SEC_5_WALL_2
  0
3DFACE
  8
ZN_1_FLR_3_SEC_5
 62
 43
 10
       67.32230
 20
        4.57000
 30
       19.00000
 11
       67.32230
 21
        4.57000
 31
       15.20000
 12
       67.32230
 22
       31.37610
 32
       15.20000
 13
       67.32230
 23
       31.37610
 33
       19.00000
999
ZN_1_FLR_3_SEC_5:ZN_1_FLR_3_SEC_5_WALL_3
  0
3DFACE
  8
ZN_1_FLR_3_SEC_5
 62
 43
 10
       67.32230
 20
       31.37610
 30
       19.00000
 11
       67.32230
 21
       31.37610
 31
       15.20000
 12
        4.57000
 22
       31.37610
 32
       15.20000
 13
        4.57000
 23
       31.37610
 33
       19.00000
999
ZN_1_FLR_3_SEC_5:ZN_1_FLR_3_SEC_5_WALL_4
  0
3DFACE
  8
ZN_1_FLR_3_SEC_5
 62
 43
 10
        4.57000
 20
       31.37610
 30
       19.00000
 11
        4.57000
 21
       31.37610
 31
       15.20000
 12
        4.57000
 22
        4.57000
 32
       15.20000
 13
        4.57000
 23
        4.57000
 33
       19.00000
999
ZN_1_FLR_3_SEC_5:ZN_1_FLR_3_SEC_5_FLOOR
  0
3DFACE
  8
ZN_1_FLR_3_SEC_5
 62
  8
 10
        4.57000
 20
       31.37610
 30
       15.20000
 11
       67.32230
 21
       31.37610
 31
       15.20000
 12
       67.32230
 22
        4.57000
 32
       15.20000
 13
        4.57000
 23
        4.57000
 33
       15.20000
999
ZN_1_FLR_3_SEC_5:ZN_1_FLR_3_SEC_5_CEILING
  0
3DFACE
  8
ZN_1_FLR_3_SEC_5
 62
 15
 10
        4.57000
 20
        4.57000
 30
       19.00000
 11
       67.32230
 21
        4.57000
 31
       19.00000
 12
       67.32230
 22
       31.37610
 32
       19.00000
 13
        4.57000
 23
       31.37610
 33
       19.00000
  0
ENDSEC
  0
EOF
